<svg width="65" height="42" xmlns="http://www.w3.org/2000/svg" xmlns:xlink="http://www.w3.org/1999/xlink" xml:space="preserve" overflow="hidden"><defs><clipPath id="clip0"><rect x="272" y="218" width="65" height="42"/></clipPath><clipPath id="clip1"><rect x="273" y="219" width="64" height="40"/></clipPath><clipPath id="clip2"><rect x="273" y="219" width="64" height="40"/></clipPath></defs><g clip-path="url(#clip0)" transform="translate(-272 -218)"><g clip-path="url(#clip1)"><g clip-path="url(#clip2)"><path d="M291.323 234.535C289.829 233.041 288.336 231.548 286.842 230.054 285.339 228.551 283.825 227.047 282.322 225.543 281.209 224.421 280.137 223.178 278.483 222.917 276.548 222.617 274.614 223.529 273.631 225.233 272.649 226.927 272.82 229.062 274.052 230.595 275.105 231.888 276.719 232.199 278.242 232.61 280.297 233.161 282.352 233.713 284.417 234.264 286.502 234.825 288.587 235.387 290.671 235.938 290.872 235.467 291.092 235.006 291.323 234.535Z" fill="#7EB0CC" fill-rule="nonzero" fill-opacity="1"/><path d="M284.417 228.38C282.362 228.931 280.307 229.483 278.242 230.034 276.719 230.445 275.095 230.756 274.052 232.049 272.82 233.572 272.649 235.707 273.631 237.401 274.614 239.095 276.548 240.017 278.483 239.717 280.127 239.456 281.209 238.213 282.322 237.101 283.825 235.597 285.329 234.093 286.842 232.58" fill="#A5C8DB" fill-rule="nonzero" fill-opacity="1"/><path d="M288.797 239.747C289.038 238.424 288.607 237.111 288.256 235.818 287.704 233.763 287.153 231.708 286.602 229.643 285.79 226.616 284.988 223.599 284.176 220.572 283.364 223.599 282.562 226.616 281.751 229.643 281.199 231.698 280.648 233.753 280.097 235.818 279.686 237.341 279.144 238.895 279.746 240.458 280.137 241.481 280.878 242.303 281.781 242.844 282.953 240.358 286.031 239.837 288.797 239.747Z" fill="#BFD8E6" fill-rule="nonzero" fill-opacity="1"/><path d="M291.543 234.114C292.035 233.201 292.636 232.159 293.328 231.187 292.375 230.585 291.223 230.335 290.12 230.034 288.065 229.483 286.01 228.931 283.946 228.38L282.663 233.723C283.785 234.845 284.918 235.968 286.041 237.101 287.083 238.143 288.095 239.286 289.569 239.647 289.91 237.732 290.561 235.948 291.543 234.114Z" fill="#98C0D6" fill-rule="nonzero" fill-opacity="1"/><path d="M293.017 231.638C293.618 230.746 294.3 229.914 295.072 229.242 295.553 227.939 295.453 226.466 294.741 225.233 293.759 223.539 291.824 222.617 289.89 222.917 288.246 223.178 287.163 224.421 286.051 225.543 284.547 227.047 283.034 228.551 281.53 230.054L283.956 234.254C286.01 233.703 288.065 233.151 290.13 232.6 291.102 232.339 292.125 232.109 293.017 231.638Z" fill="#B2D0E1" fill-rule="nonzero" fill-opacity="1"/><path d="M283.835 240.769C284.086 240.639 284.347 240.519 284.627 240.418 285.289 237.943 285.95 235.467 286.612 233.001 287.163 230.946 287.714 228.891 288.266 226.826 288.677 225.303 289.218 223.749 288.617 222.186 287.905 220.351 286.141 219.138 284.186 219.138 282.222 219.138 280.457 220.351 279.756 222.186 279.154 223.739 279.696 225.293 280.107 226.826 280.658 228.881 281.209 230.936 281.761 233.001 282.452 235.587 283.144 238.173 283.835 240.769Z" fill="#5D87A1" fill-rule="nonzero" fill-opacity="1"/><path d="M300.915 241.902 294.18 241.902C293.899 241.902 293.678 241.681 293.678 241.401L293.678 234.675C293.678 234.394 293.899 234.174 294.18 234.174L300.915 234.174C301.196 234.174 301.417 234.394 301.417 234.675L301.417 241.411C301.417 241.681 301.186 241.902 300.915 241.902ZM294.681 240.899 300.414 240.899 300.414 235.176 294.681 235.176 294.681 240.899Z" fill="#84B140" fill-rule="nonzero" fill-opacity="1"/><path d="M300.915 250.382 294.18 250.382C293.899 250.382 293.678 250.161 293.678 249.88L293.678 243.145C293.678 242.864 293.899 242.644 294.18 242.644L300.915 242.644C301.196 242.644 301.417 242.864 301.417 243.145L301.417 249.88C301.417 250.161 301.186 250.382 300.915 250.382ZM294.681 249.379 300.414 249.379 300.414 243.646 294.681 243.646 294.681 249.379Z" fill="#84B140" fill-rule="nonzero" fill-opacity="1"/><path d="M300.915 258.862 294.18 258.862C293.899 258.862 293.678 258.641 293.678 258.36L293.678 251.625C293.678 251.344 293.899 251.123 294.18 251.123L300.915 251.123C301.196 251.123 301.417 251.344 301.417 251.625L301.417 258.36C301.417 258.641 301.186 258.862 300.915 258.862ZM294.681 257.859 300.414 257.859 300.414 252.126 294.681 252.126 294.681 257.859Z" fill="#84B140" fill-rule="nonzero" fill-opacity="1"/><path d="M309.335 258.862 302.599 258.862C302.319 258.862 302.098 258.641 302.098 258.36L302.098 251.625C302.098 251.344 302.319 251.123 302.599 251.123L309.335 251.123C309.616 251.123 309.836 251.344 309.836 251.625L309.836 258.36C309.836 258.641 309.606 258.862 309.335 258.862ZM303.101 257.859 308.834 257.859 308.834 252.126 303.101 252.126 303.101 257.859Z" fill="#84B140" fill-rule="nonzero" fill-opacity="1"/><path d="M317.815 258.862 311.079 258.862C310.799 258.862 310.578 258.641 310.578 258.36L310.578 251.625C310.578 251.344 310.799 251.123 311.079 251.123L317.815 251.123C318.096 251.123 318.316 251.344 318.316 251.625L318.316 258.36C318.316 258.641 318.086 258.862 317.815 258.862ZM311.58 257.859 317.314 257.859 317.314 252.126 311.58 252.126 311.58 257.859Z" fill="#84B140" fill-rule="nonzero" fill-opacity="1"/><path d="M309.335 250.382 302.599 250.382C302.319 250.382 302.098 250.161 302.098 249.88L302.098 243.145C302.098 242.864 302.319 242.644 302.599 242.644L309.335 242.644C309.616 242.644 309.836 242.864 309.836 243.145L309.836 249.88C309.836 250.161 309.606 250.382 309.335 250.382ZM303.101 249.379 308.834 249.379 308.834 243.646 303.101 243.646 303.101 249.379Z" fill="#84B140" fill-rule="nonzero" fill-opacity="1"/><path d="M311.34 226.766C309.175 225.664 306.759 225.062 304.233 225.062 304.093 225.062 303.963 225.072 303.822 225.082L303.461 225.102C303.281 225.112 303.101 225.112 302.92 225.132 302.519 225.163 302.118 225.223 301.737 225.283L301.637 225.303C294.721 226.476 289.449 232.259 288.847 239.185L288.246 239.185C283.545 239.185 279.726 243.004 279.726 247.705 279.726 252.406 283.545 256.225 288.246 256.225L291.814 256.225C292.225 256.225 292.566 255.885 292.566 255.474 292.566 255.063 292.225 254.722 291.814 254.722L288.246 254.722C284.377 254.722 281.229 251.574 281.229 247.705 281.229 243.836 284.377 240.689 288.246 240.689L290.28 240.689 290.311 239.967C290.561 233.412 295.433 227.869 301.968 226.756 302.329 226.696 302.69 226.646 303.05 226.616 303.201 226.606 303.361 226.596 303.512 226.596L303.922 226.576C304.023 226.566 304.133 226.566 304.313 226.566 306.398 226.566 308.413 227.057 310.247 227.919 310.588 227.498 310.949 227.117 311.34 226.766Z" fill="#84B140" fill-rule="nonzero" fill-opacity="1"/><path d="M329.091 239.195C328.871 237.892 328.4 236.69 327.738 235.607 327.618 236.359 327.428 237.08 327.147 237.772 327.418 238.474 327.608 239.215 327.688 239.997L327.808 240.669 328.49 240.669C332.359 240.669 335.507 243.816 335.507 247.685 335.507 251.554 332.359 254.702 328.49 254.702L320.481 254.702C320.07 254.702 319.73 255.043 319.73 255.454 319.73 255.865 320.07 256.205 320.481 256.205L328.49 256.205C333.191 256.205 337.01 252.386 337.01 247.685 337 243.215 333.532 239.536 329.091 239.195Z" fill="#84B140" fill-rule="nonzero" fill-opacity="1"/><path d="M323.127 231.878 323.127 234.294 324.33 233.091Z" fill="#84B140" fill-rule="nonzero" fill-opacity="1"/><path d="M319.148 239.436C318.898 239.436 318.697 239.236 318.697 238.985L318.697 234.705 323.909 234.705C324.16 234.705 324.36 234.905 324.36 235.156 324.36 235.407 324.16 235.607 323.909 235.607L319.599 235.607 319.599 238.985C319.609 239.236 319.399 239.436 319.148 239.436Z" fill="#84B140" fill-rule="nonzero" fill-opacity="1"/><path d="M317.945 238.825 320.361 238.825 319.148 240.027Z" fill="#84B140" fill-rule="nonzero" fill-opacity="1"/><path d="M323.288 233.542 318.697 233.542 318.697 228.631C318.697 228.38 318.898 228.18 319.148 228.18 319.399 228.18 319.599 228.38 319.599 228.631L319.599 232.63 323.278 232.63C323.528 232.63 323.729 232.831 323.729 233.081 323.729 233.332 323.538 233.542 323.288 233.542Z" fill="#84B140" fill-rule="nonzero" fill-opacity="1"/><path d="M316.873 240.067C316.622 240.067 316.422 239.867 316.422 239.616L316.422 235.617 312.743 235.617C312.493 235.617 312.292 235.417 312.292 235.166 312.292 234.915 312.493 234.715 312.743 234.715L317.334 234.715 317.334 239.616C317.324 239.857 317.123 240.067 316.873 240.067Z" fill="#84B140" fill-rule="nonzero" fill-opacity="1"/><path d="M312.904 236.369 312.904 233.953 311.701 235.156Z" fill="#84B140" fill-rule="nonzero" fill-opacity="1"/><path d="M317.324 233.542 312.112 233.542C311.861 233.542 311.661 233.342 311.661 233.091 311.661 232.841 311.861 232.64 312.112 232.64L316.422 232.64 316.422 229.262C316.422 229.012 316.622 228.811 316.873 228.811 317.123 228.811 317.324 229.012 317.324 229.262L317.324 233.542Z" fill="#84B140" fill-rule="nonzero" fill-opacity="1"/><path d="M318.086 229.423 315.67 229.423 316.873 228.22Z" fill="#84B140" fill-rule="nonzero" fill-opacity="1"/><path d="M318.005 243.135C313.054 243.135 309.034 239.105 309.034 234.164 309.034 229.222 313.064 225.193 318.005 225.193 322.947 225.193 326.977 229.222 326.977 234.164 326.977 239.105 322.957 243.135 318.005 243.135ZM318.005 226.235C313.635 226.235 310.087 229.793 310.087 234.154 310.087 238.524 313.645 242.072 318.005 242.072 322.366 242.072 325.924 238.514 325.924 234.154 325.934 229.793 322.376 226.235 318.005 226.235Z" fill="#84B140" fill-rule="nonzero" fill-opacity="1"/></g></g></g></svg>